# File created by Blade
# Date/Time:  Thu Jan 22 16:10:14 2015
# Frame Rate: 120.000 fps
#------------------------------------------------------
:FULLY-SPECIFIED
:DEGREES
2458
root 11.264329 27.966776 -0.861919 57.352426 31.390376 12.556139
RightUpLeg -20.853624 -53.120505 -29.005576
RightLeg -4.703806 -0.000000 0.000000
RightFoot -4.689901 -33.745435 45.996273
RightToeBase 14.391563 -0.000000 -0.000000
LeftUpLeg -100.452084 -3.522785 -14.338135
LeftLeg 81.709361 -0.000000 -0.000000
LeftFoot -32.972787 5.840370 -17.751064
LeftToeBase 3.932299 -0.000000 -0.000000
Spine 64.921259 26.187745 2.673385
RightShoulder 11.828855 2.092712 -51.962516
RightArm 34.278663 10.268392 23.482967
RightForeArm -7.877478 -0.000000 17.798340
RightHand 27.058242 -0.000000 -47.087008
RightHandThumb1 -24.326973 -0.000000 -32.862282
LeftShoulder -43.741658 44.550938 -8.110862
LeftArm 15.803262 -18.397120 -70.553485
LeftForeArm -7.693987 0.000000 1.208176
LeftHand -34.935138 -0.000000 30.310346
LeftHandThumb1 -26.253704 0.000000 33.147579
Head 7.918066 -25.255996 -21.538571
2459
root 11.234618 28.011316 -0.867613 56.958705 31.287712 12.532850
RightUpLeg -20.504343 -52.899265 -29.303880
RightLeg -4.774082 -0.000000 0.000000
RightFoot -4.588248 -33.852836 45.968073
RightToeBase 14.605438 -0.000000 -0.000000
LeftUpLeg -100.009939 -3.358325 -14.348073
LeftLeg 81.472492 -0.000000 -0.000000
LeftFoot -32.822913 5.924496 -17.765097
LeftToeBase 3.806891 -0.000000 -0.000000
Spine 64.882687 26.148136 2.531183
RightShoulder 11.925731 2.158382 -51.942323
RightArm 34.868440 10.394719 23.504755
RightForeArm -7.997503 0.000000 17.724686
RightHand 26.014445 -0.000000 -44.899944
RightHandThumb1 -24.326973 -0.000000 -32.862282
LeftShoulder -43.462753 44.339868 -7.951631
LeftArm 16.005048 -18.451897 -70.432591
LeftForeArm -7.618224 -0.000000 1.282394
LeftHand -34.866329 -0.000000 30.261344
LeftHandThumb1 -26.253704 0.000000 33.147579
Head 7.720960 -25.099281 -21.417931
2460
root 11.203765 28.057437 -0.875578 56.559438 31.177931 12.472518
RightUpLeg -20.254683 -52.675775 -29.515777
RightLeg -4.810544 -0.000000 0.000000
RightFoot -4.356153 -33.965836 45.756336
RightToeBase 14.242594 -0.000000 -0.000000
LeftUpLeg -99.587914 -3.182734 -14.308870
LeftLeg 81.228143 -0.000000 -0.000000
LeftFoot -32.697348 6.009397 -17.792344
LeftToeBase 3.822922 -0.000000 -0.000000
Spine 64.800885 26.125080 2.387732
RightShoulder 12.053317 2.295797 -51.929860
RightArm 35.392336 10.500253 23.566349
RightForeArm -8.196964 -0.000000 17.749324
RightHand 24.912286 -0.000000 -42.666327
RightHandThumb1 -24.326973 -0.000000 -32.862282
LeftShoulder -43.276754 44.184695 -7.888491
LeftArm 16.371635 -18.398934 -70.302932
LeftForeArm -7.659787 -0.000000 1.219452
LeftHand -34.569336 -0.000000 30.292046
LeftHandThumb1 -26.253704 0.000000 33.147579
Head 7.531916 -24.935816 -21.313553
2461
root 11.171316 28.105401 -0.884193 56.177297 31.075940 12.437828
RightUpLeg -19.992207 -52.507865 -29.723869
RightLeg -4.870235 -0.000000 0.000000
RightFoot -4.171265 -34.068459 45.683839
RightToeBase 14.359849 -0.000000 -0.000000
LeftUpLeg -99.165567 -3.025707 -14.283400
LeftLeg 80.976433 -0.000000 -0.000000
LeftFoot -32.542909 6.060682 -17.882487
LeftToeBase 3.860447 -0.000000 -0.000000
Spine 64.665414 26.076840 2.186722
RightShoulder 12.248557 2.330170 -51.904995
RightArm 35.882268 10.731597 23.581964
RightForeArm -8.252849 -0.000000 17.940671
RightHand 23.611893 -0.000000 -40.316921
RightHandThumb1 -24.326973 -0.000000 -32.862282
LeftShoulder -43.092470 43.960903 -7.749972
LeftArm 16.669842 -18.352972 -70.171909
LeftForeArm -7.552935 -0.000000 1.208740
LeftHand -34.531569 -0.000000 30.238569
LeftHandThumb1 -26.253704 0.000000 33.147579
Head 7.348103 -24.799187 -21.182850
2462
root 11.137276 28.155993 -0.888879 55.760147 30.967821 12.389308
RightUpLeg -19.755668 -52.382168 -29.879359
RightLeg -4.934205 -0.000000 0.000000
RightFoot -3.920583 -34.133583 45.493381
RightToeBase 14.203887 -0.000000 -0.000000
LeftUpLeg -98.710850 -2.828528 -14.274934
LeftLeg 80.720256 -0.000000 -0.000000
LeftFoot -32.382708 6.109229 -17.927886
LeftToeBase 3.817714 -0.000000 -0.000000
Spine 64.563616 26.042916 2.014557
RightShoulder 12.448338 2.455233 -51.865275
RightArm 36.303670 10.970660 23.645506
RightForeArm -8.357943 -0.000000 18.204015
RightHand 22.291023 -0.000000 -37.976461
RightHandThumb1 -24.326973 -0.000000 -32.862282
LeftShoulder -42.794988 43.754170 -7.559651
LeftArm 16.904764 -18.440234 -70.094571
LeftForeArm -7.423547 0.000000 1.320657
LeftHand -34.715251 -0.000000 30.295494
LeftHandThumb1 -26.253704 0.000000 33.147579
Head 7.133337 -24.695238 -21.025400
2463
root 11.102582 28.206157 -0.897184 55.369897 30.864052 12.338570
RightUpLeg -19.547198 -52.251929 -30.025893
RightLeg -4.983502 -0.000000 0.000000
RightFoot -3.712340 -34.169888 45.413439
RightToeBase 14.111409 -0.000000 -0.000000
LeftUpLeg -98.281674 -2.645437 -14.259284
LeftLeg 80.452526 -0.000000 -0.000000
LeftFoot -32.220837 6.177636 -17.956626
LeftToeBase 3.738296 -0.000000 -0.000000
Spine 64.412773 26.014603 1.859671
RightShoulder 12.597274 2.475065 -51.768763
RightArm 36.836217 11.291007 23.638365
RightForeArm -8.408143 -0.000000 18.468565
RightHand 21.107265 -0.000000 -35.501921
RightHandThumb1 -24.326973 -0.000000 -32.862282
LeftShoulder -42.509575 43.581673 -7.418285
LeftArm 17.226411 -18.459940 -69.981499
LeftForeArm -7.288119 0.000000 1.360602
LeftHand -34.523409 -0.000000 29.941657
LeftHandThumb1 -26.253704 0.000000 33.147579
Head 6.922502 -24.633832 -20.864731
2464
root 11.061800 28.259196 -0.899956 54.975582 30.734154 12.262874
RightUpLeg -19.387057 -52.069843 -30.130801
RightLeg -5.033462 -0.000000 0.000000
RightFoot -3.519303 -34.227406 45.288605
RightToeBase 14.097481 -0.000000 -0.000000
LeftUpLeg -97.858680 -2.418319 -14.237766
LeftLeg 80.173215 -0.000000 -0.000000
LeftFoot -32.114418 6.194370 -18.065019
LeftToeBase 3.864888 -0.000000 -0.000000
Spine 64.236014 26.019533 1.597485
RightShoulder 12.742358 2.698247 -51.618375
RightArm 37.334073 11.606354 23.739937
RightForeArm -8.592466 0.000000 18.834277
RightHand 19.806522 -0.000000 -32.964055
RightHandThumb1 -24.326973 -0.000000 -32.862282
LeftShoulder -42.387320 43.396033 -7.361948
LeftArm 17.643785 -18.606574 -69.922737
LeftForeArm -7.155932 0.000000 1.448620
LeftHand -34.491482 0.000000 29.810468
LeftHandThumb1 -26.253704 0.000000 33.147579
Head 6.615964 -24.597810 -20.660540
2465
root 11.019119 28.314038 -0.903814 54.617941 30.656523 12.206470
RightUpLeg -19.266615 -52.005901 -30.159273
RightLeg -5.067776 -0.000000 0.000000
RightFoot -3.328483 -34.253875 45.205328
RightToeBase 13.914186 -0.000000 -0.000000
LeftUpLeg -97.448488 -2.236476 -14.189246
LeftLeg 79.881742 -0.000000 -0.000000
LeftFoot -31.915859 6.288592 -18.020014
LeftToeBase 3.647433 -0.000000 -0.000000
Spine 64.032206 25.991275 1.453885
RightShoulder 12.858057 2.893154 -51.497274
RightArm 37.831163 12.009980 24.000147
RightForeArm -8.831216 -0.000000 19.251556
RightHand 18.548672 -0.000000 -30.433520
RightHandThumb1 -24.326973 -0.000000 -32.862282
LeftShoulder -42.071840 43.217404 -7.224610
LeftArm 18.011612 -18.769514 -69.827683
LeftForeArm -6.997653 0.000000 1.561142
LeftHand -34.647626 -0.000000 29.926530
LeftHandThumb1 -26.253704 0.000000 33.147579
Head 6.337069 -24.490678 -20.404675
2466
root 10.977747 28.372278 -0.909752 54.261877 30.543217 12.171079
RightUpLeg -19.161109 -51.915561 -30.240008
RightLeg -5.058162 -0.000000 0.000000
RightFoot -3.101312 -34.277034 45.064391
RightToeBase 13.819697 -0.000000 -0.000000
LeftUpLeg -97.021741 -2.047313 -14.185580
LeftLeg 79.562529 -0.000000 -0.000000
LeftFoot -31.774346 6.302903 -18.141541
LeftToeBase 3.748871 -0.000000 -0.000000
Spine 63.842190 25.958742 1.227107
RightShoulder 12.900241 3.049192 -51.363936
RightArm 38.461899 12.452115 24.215783
RightForeArm -8.777470 0.000000 19.623523
RightHand 17.417036 -0.000000 -28.010711
RightHandThumb1 -24.326973 -0.000000 -32.862282
LeftShoulder -41.814685 42.974681 -7.093857
LeftArm 18.408575 -18.802160 -69.685417
LeftForeArm -6.983183 0.000000 1.581231
LeftHand -34.518603 -0.000000 29.754818
LeftHandThumb1 -26.253704 0.000000 33.147579
Head 5.983396 -24.503000 -20.186643
2467
root 10.934199 28.429184 -0.914805 53.927988 30.448367 12.135430
RightUpLeg -19.068786 -51.848945 -30.289579
RightLeg -5.059624 -0.000000 0.000000
RightFoot -2.871713 -34.281617 44.914528
RightToeBase 13.735857 -0.000000 -0.000000
LeftUpLeg -96.618775 -1.861040 -14.173696
LeftLeg 79.252842 -0.000000 -0.000000
LeftFoot -31.548534 6.364912 -18.106460
LeftToeBase 3.676728 -0.000000 -0.000000
Spine 63.628786 25.912755 1.043498
RightShoulder 12.887439 3.120843 -51.271947
RightArm 39.241691 13.005212 24.556452
RightForeArm -8.664203 -0.000000 19.925659
RightHand 16.419001 -0.000000 -25.727834
RightHandThumb1 -24.326973 -0.000000 -32.862282
LeftShoulder -41.481738 42.695735 -6.972044
LeftArm 18.756368 -18.829333 -69.467364
LeftForeArm -6.941990 0.000000 1.670093
LeftHand -34.359223 -0.000000 29.681849
LeftHandThumb1 -26.253704 0.000000 33.147579
Head 5.560064 -24.384183 -19.922849
2468
root 10.891886 28.484929 -0.922149 53.584837 30.339916 12.099360
RightUpLeg -18.964189 -51.748366 -30.368837
RightLeg -5.056629 -0.000000 0.000000
RightFoot -2.669238 -34.301667 44.789297
RightToeBase 13.627777 -0.000000 -0.000000
LeftUpLeg -96.204370 -1.662841 -14.182764
LeftLeg 78.941100 -0.000000 -0.000000
LeftFoot -31.390643 6.390619 -18.139703
LeftToeBase 3.650650 -0.000000 -0.000000
Spine 63.354147 25.828140 0.825263
RightShoulder 12.993432 3.304428 -51.255712
RightArm 39.976394 13.416236 24.932628
RightForeArm -8.579844 -0.000000 20.111050
RightHand 15.522896 -0.000000 -23.669126
RightHandThumb1 -24.326973 -0.000000 -32.862282
LeftShoulder -41.208625 42.540618 -6.924435
LeftArm 19.222128 -18.820361 -69.287674
LeftForeArm -6.917194 -0.000000 1.694261
LeftHand -34.288443 -0.000000 29.099752
LeftHandThumb1 -26.253704 0.000000 33.147579
Head 5.279614 -24.240815 -19.817251
2469
root 10.844937 28.541925 -0.924398 53.232634 30.273961 12.077950
RightUpLeg -18.777577 -51.653062 -30.460346
RightLeg -5.094733 -0.000000 0.000000
RightFoot -2.492648 -34.364068 44.691229
RightToeBase 13.529375 -0.000000 -0.000000
LeftUpLeg -95.766435 -1.496132 -14.125999
LeftLeg 78.629586 -0.000000 -0.000000
LeftFoot -31.214841 6.396820 -18.230425
LeftToeBase 3.679600 -0.000000 -0.000000
Spine 63.125007 25.743462 0.688616
RightShoulder 13.069392 3.566130 -51.214849
RightArm 40.692942 13.652146 25.283963
RightForeArm -8.495174 -0.000000 20.150366
RightHand 14.716967 -0.000000 -21.882060
RightHandThumb1 -24.326973 -0.000000 -32.862282
LeftShoulder -40.994217 42.466137 -6.943720
LeftArm 19.943496 -19.003711 -69.229260
LeftForeArm -6.777891 0.000000 1.656063
LeftHand -34.284302 -0.000000 29.077780
LeftHandThumb1 -26.253704 0.000000 33.147579
Head 5.025596 -24.268749 -19.699742
2470
root 10.795488 28.597137 -0.929669 52.895565 30.180851 12.012650
RightUpLeg -18.710300 -51.542374 -30.463729
RightLeg -5.114820 -0.000000 0.000000
RightFoot -2.328607 -34.396593 44.580597
RightToeBase 13.497788 -0.000000 -0.000000
LeftUpLeg -95.388811 -1.284615 -14.098424
LeftLeg 78.322353 -0.000000 -0.000000
LeftFoot -30.983625 6.488141 -18.133189
LeftToeBase 3.582538 -0.000000 -0.000000
Spine 62.817877 25.693596 0.506740
RightShoulder 13.131733 3.731498 -51.223612
RightArm 41.581080 13.908482 25.723883
RightForeArm -8.509582 0.000000 20.011765
RightHand 14.027678 -0.000000 -20.243333
RightHandThumb1 -24.326973 -0.000000 -32.862282
LeftShoulder -40.646128 42.232918 -6.825853
LeftArm 20.336164 -18.825338 -68.938780
LeftForeArm -6.895791 0.000000 1.764329
LeftHand -34.169006 -0.000000 28.468694
LeftHandThumb1 -26.253704 0.000000 33.147579
Head 4.720967 -24.260772 -19.548566
